<svg xmlns="http://www.w3.org/2000/svg" viewBox="0 0 2394 1249" role="img" aria-label="tone"><title>tone</title><rect width="2394" height="1249" fill="#340b10"/><path fill="#e26b5c" transform="translate(364 364)" d="M312.50 419.92L332.03 445.31Q314.45 480.47 280.27 500.49Q246.09 520.51 207.03 520.51L207.03 520.51Q145.51 520.51 105.47 483.89Q65.43 447.27 65.43 372.07L65.43 372.07L68.36 143.55L0 143.55L0 120.12L137.70 0L161.13 0L159.18 120.12L158.20 358.40Q158.20 405.27 179.20 427.73Q200.20 450.20 239.26 450.20L239.26 450.20Q259.77 450.20 278.81 441.89Q297.85 433.59 312.50 419.92L312.50 419.92ZM303.71 143.55L117.19 143.55L117.19 90.82L303.71 90.82L303.71 143.55ZM533.24 520.51L533.24 520.51Q467.81 520.51 419.47 493.16Q371.13 465.82 343.79 416.50Q316.45 367.19 316.45 303.71L316.45 303.71Q316.45 235.35 346.72 186.04Q376.99 136.72 427.29 109.38Q477.58 82.03 537.15 82.03L537.15 82.03Q598.67 82.03 645.55 109.38Q692.42 136.72 717.81 185.06Q743.20 233.40 743.20 297.85L743.20 297.85Q743.20 360.35 715.37 410.64Q687.54 460.94 639.69 490.72Q591.84 520.51 533.24 520.51ZM543.01 469.73L543.01 469.73Q573.28 469.73 595.25 451.17Q617.23 432.62 629.43 398.44Q641.64 364.26 641.64 319.34L641.64 319.34Q641.64 235.35 609.90 183.11Q578.16 130.86 524.45 130.86L524.45 130.86Q477.58 130.86 448.77 172.85Q419.96 214.84 419.96 284.18L419.96 284.18Q419.96 337.89 435.59 379.88Q451.21 421.88 479.53 445.80Q507.85 469.73 543.01 469.73ZM985.43 512.70L768.63 512.70L765.70 474.61L826.25 458.98Q827.23 454.10 828.20 441.89Q829.18 429.69 830.16 409.18Q831.13 388.67 831.13 357.42L831.13 357.42L832.11 282.23Q832.11 250.98 829.67 222.17Q827.23 193.36 823.32 172.85L823.32 172.85L760.82 159.18L760.82 123.05L905.35 83.98L924.88 100.59L920 153.32L922.93 154.30Q955.16 117.19 989.82 99.61Q1024.49 82.03 1063.55 82.03L1063.55 82.03Q1101.64 82.03 1133.87 101.07Q1166.09 120.12 1186.11 158.20Q1206.13 196.29 1206.13 252.93L1206.13 252.93L1206.13 358.40Q1206.13 392.58 1207.11 421.39Q1208.09 450.20 1211.02 458.98L1211.02 458.98L1271.56 474.61L1268.63 512.70L1056.72 512.70L1054.77 474.61L1111.41 458.98Q1112.38 451.17 1113.36 437.99Q1114.34 424.80 1114.82 406.25Q1115.31 387.70 1115.31 363.28L1115.31 363.28L1115.31 265.63Q1115.31 224.61 1101.64 199.71Q1087.97 174.80 1066.97 163.57Q1045.98 152.34 1022.54 152.34L1022.54 152.34Q992.27 152.34 966.39 166.50Q940.51 180.66 921.95 206.05L921.95 206.05L921.95 351.56Q921.95 393.55 923.42 421.88Q924.88 450.20 927.81 458.98L927.81 458.98L988.36 474.61L985.43 512.70ZM1495.23 520.51L1495.23 520.51Q1436.64 520.51 1389.77 494.14Q1342.89 467.77 1316.04 419.92Q1289.18 372.07 1289.18 308.59L1289.18 308.59Q1289.18 240.23 1318.48 188.96Q1347.77 137.70 1394.65 109.38Q1441.52 81.05 1496.21 82.03L1496.21 82.03Q1576.29 83.01 1619.75 134.28Q1663.20 185.55 1663.20 273.44L1663.20 273.44L1663.20 292.97L1369.26 292.97L1369.26 247.07L1589.96 247.07L1577.27 263.67L1577.27 239.26Q1577.27 186.52 1553.34 156.74Q1529.41 126.95 1488.40 126.95L1488.40 126.95Q1462.03 126.95 1438.11 142.58Q1414.18 158.20 1400.02 189.45Q1385.86 220.70 1385.86 267.58L1385.86 267.58L1385.86 282.23Q1385.86 358.40 1424.43 402.34Q1463.01 446.29 1525.51 446.29L1525.51 446.29Q1559.69 446.29 1586.54 433.11Q1613.40 419.92 1639.77 389.65L1639.77 389.65L1666.13 414.06Q1638.79 467.77 1594.36 494.14Q1549.92 520.51 1495.23 520.51Z"/></svg>
